<svg xmlns="http://www.w3.org/2000/svg" width="2045.906" height="1270.13" viewBox="0 0 2045.906 1270.13">
  <g id="Group_35701" data-name="Group 35701" transform="translate(8 21)">
    <path id="Path_37452" data-name="Path 37452" d="M0,0H1920V1186L0,1220Z" transform="translate(0 -21)" fill="#0e77ff"/>
    <path id="Path_37711" data-name="Path 37711" d="M2817.392,953.217c-258.951-77.476-163.916-317.2-157.392-334.8l-46-26.667C2143.843,1144.74,1392,743.217,1392,743.217v388H3320v-370S3084.778,1033.217,2817.392,953.217Z" transform="translate(-1400 117.913)" fill="#fff"/>
    <g id="Group_35603" data-name="Group 35603" transform="translate(0 -9)">
      <rect id="Rectangle_444" data-name="Rectangle 444" width="100" height="3" transform="translate(831 118)" fill="#0e77ff"/>
      <path id="Polygon_1" data-name="Polygon 1" d="M7,0l7,12H0Z" transform="translate(888 130) rotate(-180)" fill="#0e77ff"/>
    </g>
    <path id="Path_37458" data-name="Path 37458" d="M1003.519,333.21l-45.692,26.38V306.829Z" transform="translate(226.57 174.944)" fill="#209cd9"/>
    <path id="Path_37485" data-name="Path 37485" d="M987.022,323.685,957.827,340.54V306.829Z" transform="matrix(0.391, 0.921, -0.921, 0.391, 938.017, -677.034)" fill="#209cd9"/>
    <path id="Path_37483" data-name="Path 37483" d="M977.8,318.36l-19.972,11.531V306.829Z" transform="matrix(0.966, 0.259, -0.259, 0.966, 592.384, 406.825)" fill="#209cd9"/>
    <path id="Path_37459" data-name="Path 37459" d="M1003.519,333.21V385.97l-45.692-26.38Z" transform="translate(676.481 51.944)" fill="#fff"/>
    <path id="Path_37486" data-name="Path 37486" d="M987.8,333.21v34.614l-29.977-17.307Z" transform="matrix(0.616, 0.788, -0.788, 0.616, 779.152, -740.781)" fill="#fff"/>
    <path id="Path_37484" data-name="Path 37484" d="M1003.519,333.21V385.97l-45.692-26.38Z" transform="translate(1205.364 -257.652) rotate(83)" fill="#68bae5"/>
    <path id="Path_37482" data-name="Path 37482" d="M998.484,333.21v46.947l-40.657-23.474Z" transform="matrix(0.545, 0.839, -0.839, 0.545, 1436.156, -184.608)" fill="#a7d3ec"/>
    <path id="Path_37501" data-name="Path 37501" d="M1240.1,333.21V659.145L957.827,496.177Z" transform="translate(2485.362 -447.953) rotate(97)" fill="#68bae5"/>
    <path id="Path_37502" data-name="Path 37502" d="M1094.356,333.21V490.86L957.827,412.034Z" transform="translate(1079.659 1913.027) rotate(-130)" fill="#68bae5"/>
    <path id="Path_37488" data-name="Path 37488" d="M1080.858,333.21V475.273L957.827,404.241Z" transform="translate(2062.882 -32.143) rotate(93)" fill="none" stroke="#209cd9" stroke-width="1"/>
    <path id="Path_37489" data-name="Path 37489" d="M1035.41,333.21v89.585L957.827,378Z" transform="translate(2596.119 992.161) rotate(177)" fill="none" stroke="#209cd9" stroke-width="1"/>
    <path id="Path_37490" data-name="Path 37490" d="M1035.41,333.21v89.585L957.827,378Z" transform="translate(2078.953 867.161) rotate(177)" fill="none" stroke="#209cd9" stroke-width="1"/>
    <path id="Path_37467" data-name="Path 37467" d="M957.827,306.829V359.59l-45.692-26.38Z" transform="matrix(0.788, 0.616, -0.616, 0.788, 686.92, -496.051)" fill="#a7d3ec"/>
    <g id="Group_35691" data-name="Group 35691" transform="translate(294.564 -944.76) rotate(28)">
      <g id="Group_35690" data-name="Group 35690" transform="translate(1473 560)">
        <path id="Path_37709" data-name="Path 37709" d="M2239.624,707.169c64.275-224.958-40.322-307.246-67.256-324.2-26.932,16.953-131.528,99.241-67.256,324.2,0,0-127.175,26.9-48.913,215.22h12.229s-14.674-102.719,53.8-127.175l17.12,58.7h7.337l2.446,14.674H2195.6l2.446-14.674h7.337l17.12-58.7c68.479,24.457,53.805,127.175,53.805,127.175h12.229C2366.8,734.072,2239.624,707.169,2239.624,707.169Z" transform="translate(-2030.743 -382.97)" fill="#fff"/>
        <path id="Path_37710" data-name="Path 37710" d="M2178.2,443.806c-20.355-35.347-45.059-53.771-56.28-60.836-11.224,7.066-35.927,25.489-56.283,60.836Z" transform="translate(-1980.293 -382.97)" fill="#68bae5"/>
      </g>
    </g>
    <path id="Path_37500" data-name="Path 37500" d="M1226.578,333.21V643.536L957.827,488.372Z" transform="translate(1953.848 -734.337) rotate(93)" fill="none" stroke="#a7d3ec" stroke-width="1"/>
    <circle id="Ellipse_223" data-name="Ellipse 223" cx="42" cy="42" r="42" transform="translate(1294 485)" fill="#0e77ff"/>
  </g>
</svg>
