<svg xmlns="http://www.w3.org/2000/svg" width="2068.738" height="892.384" viewBox="0 0 2068.738 892.384">
  <g id="Group_35703" data-name="Group 35703" transform="translate(110.778 -7323.748)">
    <path id="Path_37487" data-name="Path 37487" d="M2312.98,4027.6s263.822,264.568,479.2,304.253c-2.367,4.41,426.028,145.513,684.012-246.929,0-2.205,227.214-306.458,551.469-253.544-2.367,2.2,359.757,33.07,343.189,354.961,2.367-4.409,84.552,502.595-267.448,414.595" transform="translate(-2423.404 3499.065)" fill="none" stroke="#0e77ff" stroke-width="1" stroke-dasharray="10 10"/>
    <g id="Group_35625" data-name="Group 35625" transform="matrix(0.998, 0.07, -0.07, 0.998, 1420.593, 7889.889)">
      <g id="Group_545" data-name="Group 545" transform="matrix(-0.788, 0.616, -0.616, -0.788, 339.571, 145.245)">
        <path id="Path_1406" data-name="Path 1406" d="M0,1.046,95.4,53.214l60.608,33.141,125.943,68.868L79.576,0Z" transform="translate(0 32.763)" fill="#68bae5"/>
        <path id="Path_1407" data-name="Path 1407" d="M0,32.752,37.9,0,202.378,187.983Z" transform="translate(79.576 0.003)" fill="#209cd9"/>
        <g id="Group_544" data-name="Group 544" transform="translate(117.477 0)">
          <path id="Path_1408" data-name="Path 1408" d="M140.511,139.392,0,0,72.856,13.385Z" transform="translate(23.965 48.592)" fill="#a7d3ec"/>
          <path id="Path_1409" data-name="Path 1409" d="M23.966,48.633,0,0,47.271,52.915Z" transform="translate(0 0)" fill="#68bae5"/>
        </g>
      </g>
    </g>
  </g>
</svg>
